<svg  xmlns="http://www.w3.org/2000/svg" xmlns:xlink="http://www.w3.org/1999/xlink">
	<symbol viewbox="0 0 20 20" id="mail">
		<path d="M10,11.248L0.016,3.76c0-0.691,0.556-1.248,1.248-1.248h17.473c0.691,0,1.248,0.556,1.248,1.248L10,11.248z
		 M10,13.49l9.984-7.488V16.24c0,0.692-0.557,1.248-1.248,1.248H1.263c-0.692,0-1.248-0.556-1.248-1.248V6.002L10,13.49z"/>
	</symbol>
	<symbol viewbox="0 0 20 20" id="twitter">
		<path d="M17.945,5.925c0,0.185,0,0.351,0,0.536c0,5.412-4.113,11.65-11.641,11.65c-2.312,0-4.485-0.506-6.289-1.666
		c0.321,0.049,0.644,0.068,0.975,0.068c1.911,0,3.695-0.83,5.08-1.941c-1.774-0.02-3.306-1.229-3.812-2.846
		c0.254,0.049,0.507,0.078,0.761,0.078c0.37,0,0.741-0.049,1.092-0.146C2.238,11.287,0.824,9.63,0.824,7.641c0-0.02,0-0.02,0-0.049
		C1.381,7.894,2.005,8.08,2.677,8.099C1.565,7.358,0.844,6.11,0.844,4.706c0-0.761,0.215-1.385,0.557-1.989
		c2.037,2.477,5.04,4.017,8.434,4.203C9.766,6.626,9.746,6.295,9.746,5.974c0-2.262,1.822-4.085,4.086-4.085
		c1.18,0,2.242,0.507,3.012,1.287c0.918-0.186,1.805-0.527,2.584-0.995c-0.303,0.956-0.945,1.765-1.803,2.271
		c0.838-0.097,1.617-0.322,2.359-0.653C19.428,4.638,18.736,5.35,17.945,5.925z"/>
	</symbol>
	<symbol viewbox="0 0 20 20" id="linkedin">
		<path d="M2.463,4.798c-1.472,0-2.447-1.014-2.447-2.292c0-1.287,0.995-2.281,2.516-2.281
		c1.501,0,2.457,0.994,2.477,2.281c0,1.277-0.975,2.292-2.516,2.292H2.463z M4.588,6.875v12.9H0.435v-12.9H4.588z M11.248,12.287
		c0-1.668,1.062-2.496,2.311-2.496c1.25,0,2.264,0.828,2.264,2.914v7.07h4.162v-7.488c0-3.744-2.078-5.821-4.992-5.821
		c-1.668,0-2.916,0.946-3.744,2.194l-0.137-1.785H7.016c0,0.439,0.068,2.916,0.068,2.916v9.984h4.164V12.287z"/>
	</symbol>
	<symbol viewbox="0 0 20 20" id="dribbble">
		<path d="M0.016,10c0-0.166,0-0.302,0-0.458c4.183-0.078,7.605-0.537,10.423-1.414
		c0.322,0.644,0.604,1.268,0.877,1.921c-0.254,0.068-0.507,0.136-0.761,0.224c-3.139,1.112-5.8,3.286-7.906,6.504
		C1.011,14.992,0.016,12.613,0.016,10z M0.221,8.011c0.624-3.14,2.75-5.752,5.597-7.069c1.599,1.94,2.886,3.9,3.93,5.821
		C7.153,7.524,4.014,7.943,0.221,8.011z M10,19.984c-2.331,0-4.505-0.809-6.191-2.145c2.33-3.676,5.177-5.578,8.062-6.389
		c1.062,2.828,1.668,5.463,2.059,7.725C12.701,19.711,11.385,19.984,10,19.984z M7.503,0.338C8.312,0.133,9.142,0.016,10,0.016
		c2.564,0,4.905,0.975,6.659,2.564c-1.346,1.55-3.08,2.75-5.273,3.627C10.351,4.267,9.074,2.278,7.503,0.338z M13.002,9.649
		c-0.271-0.692-0.594-1.384-0.926-2.096c2.312-0.926,4.184-2.223,5.646-3.881c1.402,1.707,2.242,3.9,2.262,6.279
		C17.508,9.396,15.178,9.288,13.002,9.649z M15.498,18.318c-0.39-2.146-0.965-4.594-1.939-7.207c2.193-0.32,4.368-0.098,6.309,0.391
		C19.449,14.35,17.81,16.797,15.498,18.318z"/>
	</symbol>
</svg>
